# xmcd CD database file generated by Grip 3.2.0
# 
# Track frame offsets:
#       182
#       43445
#       70970
#       88232
#       104720
#       133520
#       149877
#       163445
#       176270
#       188045
# 
# Disc length: 2716 seconds
# 
# Revision: 5
# Processed by: cddbd v1.5.2PL0 Copyright (c) Steve Scherf et al.
# Submitted via: Grip 3.2.0
# 
DISCID=a20a9a0a
DTITLE=Sammy Vomácka - Easy Rider
DYEAR=1991
DGENRE=Blues
TTITLE0=Easy Rider
TTITLE1=Love in Vain
TTITLE2=Maple Leaf Rag
TTITLE3=Roznouke Hodiny
TTITLE4=Tickle Dew
TTITLE5=Why Should I Spend My Money
TTITLE6=Alabama Jubilee
TTITLE7=Blind Boy Rag
TTITLE8=Georgia Rag
TTITLE9=Säbeltanz
EXTD=
EXTT0=
EXTT1=
EXTT2=
EXTT3=
EXTT4=
EXTT5=
EXTT6=
EXTT7=
EXTT8=
EXTT9=
PLAYORDER=
